<mxfile host="app.diagrams.net" modified="2023-10-22T20:18:46.148Z" agent="Mozilla/5.0 (Windows NT 10.0; Win64; x64; rv:109.0) Gecko/20100101 Firefox/118.0" etag="P41G0KnFSJNixwEI3bpK" version="22.0.6" type="github">
  <diagram id="R2lEEEUBdFMjLlhIrx00" name="Page-1">
    <mxGraphModel dx="794" dy="380" grid="1" gridSize="10" guides="1" tooltips="1" connect="1" arrows="1" fold="1" page="1" pageScale="1" pageWidth="850" pageHeight="1100" math="0" shadow="0" extFonts="Permanent Marker^https://fonts.googleapis.com/css?family=Permanent+Marker">
      <root>
        <mxCell id="0" />
        <mxCell id="1" parent="0" />
        <mxCell id="-5gIi5-jdgIaM7IlwLas-1" value="&lt;h1&gt;ZD: Potrebno je stvoriti ER dijagram na temelju sljedećih zahtjeva:&lt;br&gt;&lt;/h1&gt;&lt;p&gt;• Svaki hotel razlikuje se prema svom jedinstvenom ID-u, imenu i broju zvjezdica. Hotel ne mora nužno sadržavati sobe za najamjer postoje razdoblja u godini kada se hotel obnavlja I u to vrijeme neće imatisoba za najam&lt;br&gt;• Svaki hotel nudi mnogo hotelskih soba koje gosti mogu rezervirati. Sobe se identificiraju prema jedinstvenom broju sobe. Svaka se soba razlikuje po tipu i veličini, a iznajmljuje se uz određenu cijenu.&lt;br&gt;&lt;br&gt;&lt;/p&gt;" style="text;html=1;strokeColor=none;fillColor=none;spacing=5;spacingTop=-20;whiteSpace=wrap;overflow=hidden;rounded=0;" parent="1" vertex="1">
          <mxGeometry x="80" y="340" width="345" height="260" as="geometry" />
        </mxCell>
      </root>
    </mxGraphModel>
  </diagram>
</mxfile>
